<svg xmlns="http://www.w3.org/2000/svg" xmlns:svg="http://www.w3.org/2000/svg" id="svg1303" width="500" height="500" version="1.1" viewBox="0 0 132.292 132.292"><metadata id="metadata1300"/><g id="layer1" transform="translate(0,-164.70764)"><path style="opacity:1;fill:#000;fill-opacity:1;stroke:none;stroke-width:0;stroke-linecap:round;stroke-linejoin:bevel;stroke-miterlimit:4;stroke-dasharray:none;stroke-dashoffset:0;stroke-opacity:1;paint-order:markers fill stroke" id="rect1208" d="M 249.89062 39.6875 L 249.88477 39.693359 C 229.11581 39.693359 212.39453 59.135896 212.39453 83.289062 L 212.39453 289.66016 L 159.20312 236.46875 L 127.63867 268.05469 L 218.74805 359.14258 L 218.73242 359.1582 L 249.93555 390.33789 L 281.52148 358.77344 L 372.36133 267.91211 L 341.1582 236.73047 L 287.37891 290.50977 L 287.37891 83.283203 C 287.37891 59.130339 270.65971 39.6875 249.89062 39.6875 z M 50.566406 407.88867 C 44.284822 407.88867 39.228516 412.94498 39.228516 419.22656 L 39.228516 444.62695 C 39.228516 450.90854 44.284822 455.96484 50.566406 455.96484 L 449.43359 455.96484 C 455.71518 455.96484 460.77148 450.90854 460.77148 444.62695 L 460.77148 419.22656 C 460.77148 412.94498 455.71518 407.88867 449.43359 407.88867 L 50.566406 407.88867 z" transform="matrix(0.26458394,0,0,0.26458394,0,164.70749)"/></g></svg>