<svg xmlns="http://www.w3.org/2000/svg" xmlns:svg="http://www.w3.org/2000/svg" xmlns:xlink="http://www.w3.org/1999/xlink" id="svg1303" x="0" y="0" version="1.1" viewBox="0 0 500 500" style="enable-background:new 0 0 500 500" xml:space="preserve"><g id="layer1" transform="translate(0,-164.70764)"><path id="path1091" d="M250,259.4c-105.2,0.1-201.5,60-250,155.4C48.5,510.1,144.9,569.9,250,570 c105.2-0.1,201.5-60,250-155.4C451.5,319.3,355.1,259.5,250,259.4z M230.7,287.8c-18.7,2.8-36.6,9.8-52.4,20.3 c2.8-0.5,5.7-0.7,8.6-0.7c27.8,0,50.4,22.6,50.4,50.4c0,0,0,0,0,0c0,27.8-22.6,50.4-50.4,50.4c0,0,0,0,0,0 c-27.8,0-50.4-22.6-50.4-50.4c0,0,0,0,0,0c0-1.2,0.1-2.4,0.2-3.6c-10,18.6-15.2,39.4-15.2,60.5c0,62.6,45,116,106.7,126.7 c-78.3-7.6-147.6-55.2-183.9-126.6C81,342.6,151.3,294.7,230.7,287.8L230.7,287.8z M271.8,288c78.3,7.6,147.6,55.2,183.9,126.6 c-36.7,72.1-106.9,120-186.2,127c62.6-9.7,108.9-63.5,108.9-126.9C378.5,352.1,333.5,298.7,271.8,288L271.8,288z"/></g></svg>