<svg xmlns="http://www.w3.org/2000/svg" xmlns:svg="http://www.w3.org/2000/svg" id="svg1303" width="500" height="500" version="1.1" viewBox="0 0 132.292 132.292"><metadata id="metadata1300"/><g id="layer1" transform="translate(0,-164.70764)"><path style="opacity:1;fill:#000;fill-opacity:1;stroke:none;stroke-width:0;stroke-linecap:round;stroke-linejoin:bevel;stroke-miterlimit:4;stroke-dasharray:none;stroke-dashoffset:0;stroke-opacity:1;paint-order:markers fill stroke" id="rect1073" d="m 115.5244,167.09017 c -3.04348,0 -6.08905,1.16742 -8.42111,3.49893 L 66.146003,211.54641 25.18874,170.5891 c -4.664143,-4.66413 -12.173961,-4.66413 -16.8382429,0 l -2.4692132,2.46935 c -4.664282,4.66413 -4.664282,12.17408 0,16.83807 l 40.9572491,40.9573 -40.9572491,40.95745 c -4.664282,4.66412 -4.664282,12.17393 0,16.83806 l 2.4692132,2.46935 c 4.6642819,4.66413 12.1740999,4.66413 16.8382429,0 l 40.957263,-40.9573 40.957287,40.9573 c 4.66413,4.66413 12.17393,4.66413 16.8382,0 l 2.46921,-2.46935 c 4.66427,-4.66413 4.66427,-12.17394 0,-16.83806 L 85.453463,230.85382 126.4107,189.89652 c 4.66427,-4.66399 4.66427,-12.17394 0,-16.83807 l -2.46921,-2.46935 c -2.33221,-2.33206 -5.37361,-3.49893 -8.41709,-3.49893 z"/></g></svg>