<svg xmlns="http://www.w3.org/2000/svg" xmlns:svg="http://www.w3.org/2000/svg" xmlns:xlink="http://www.w3.org/1999/xlink" id="svg1303" x="0" y="0" version="1.1" viewBox="0 0 500 500" style="enable-background:new 0 0 500 500" xml:space="preserve"><g id="layer1" transform="translate(0,-164.70764)"><path id="rect1278" d="M285.3,164.7c-3.1-0.1-6.4,0.1-9.8,0.7c-73.7,12.2,24,119.6-61.8,180.9 c-71.7,59.8-97.8,41.1-98.5,60.7v192.6c10.8,28.5,82.3,57.6,158.4,63.8c76.1,6.2,182.5-9.9,183.6-43c0.6-30-16.5-30.7-16.5-30.7 s37.5-2.3,38.7-34.8c0.6-31.9-36.3-36.4-36.3-36.4s47.3-1.3,47.3-34.2c0-33.6-36.4-36.3-47.6-36.8c7-0.4,34.5-10,34.4-43.2 c-0.2-34.3-52.8-31.5-147.3-37.7C340.8,302.9,348.4,166.8,285.3,164.7L285.3,164.7z M25.6,382.8c-8.9,0-16,6-16,13.4v217.5 c0,7.4,7.1,13.4,16,13.4h59.8c8.9,0,16-6,16-13.4V396.2c0-7.4-7.1-13.4-16-13.4H25.6z"/></g></svg>