<svg xmlns="http://www.w3.org/2000/svg" xmlns:svg="http://www.w3.org/2000/svg" id="svg1303" width="500" height="500" version="1.1" viewBox="0 0 132.292 132.292"><metadata id="metadata1300"/><g id="layer1" transform="translate(0,-164.70764)"><path style="opacity:1;fill:#000;fill-opacity:1;stroke:none;stroke-width:0;stroke-linecap:round;stroke-linejoin:bevel;stroke-miterlimit:4;stroke-dasharray:none;stroke-dashoffset:0;stroke-opacity:1;paint-order:markers fill stroke" id="rect816" d="m 9.6367188,5.1015625 c -2.5126284,0 -4.5351563,1.6854372 -4.5351563,3.7792969 V 491.11914 c 0,2.09386 2.022528,3.7793 4.5351563,3.7793 H 490.36328 c 2.51263,0 4.53516,-1.68544 4.53516,-3.7793 V 8.8808594 c 0,-2.0938597 -2.02253,-3.7792969 -4.53516,-3.7792969 z M 53.748047,49.212891 H 446.25195 c 2.51263,0 4.53516,1.685437 4.53516,3.779297 V 447.00781 c 0,2.09386 -2.02253,3.7793 -4.53516,3.7793 H 53.748047 c -2.512628,0 -4.535156,-1.68544 -4.535156,-3.7793 V 52.992188 c 0,-2.09386 2.022528,-3.779297 4.535156,-3.779297 z" transform="matrix(0.26458394,0,0,0.26458394,0,164.70749)"/></g></svg>