<svg xmlns="http://www.w3.org/2000/svg" xmlns:svg="http://www.w3.org/2000/svg" xmlns:xlink="http://www.w3.org/1999/xlink" id="svg1303" x="0" y="0" version="1.1" viewBox="0 0 500 500" xml:space="preserve" style="enable-background:new 0 0 500 500"><path d="M431.9,194.4H305.6V68.1c0-30.6-25-55.6-55.6-55.6h0c-30.6,0-55.6,25-55.6,55.6v126.3H68.1c-30.6,0-55.6,25-55.6,55.6v0	c0,30.6,25,55.6,55.6,55.6h126.3v126.3c0,30.6,25,55.6,55.6,55.6h0c30.6,0,55.6-25,55.6-55.6V305.6h126.3c30.6,0,55.6-25,55.6-55.6	v0C487.5,219.4,462.5,194.4,431.9,194.4z"/></svg>