<svg xmlns="http://www.w3.org/2000/svg" xmlns:svg="http://www.w3.org/2000/svg" xmlns:xlink="http://www.w3.org/1999/xlink" id="svg1303" x="0" y="0" version="1.1" viewBox="0 0 500 500" xml:space="preserve" style="enable-background:new 0 0 500 500"><g><path d="M142.3,330.2c0-38.6,0.1-77.1,0-115.7c-0.1-16.2,4.1-31,12.8-44.7c29.5-46.9,58.7-94,88.1-141C256.7,7.3,281-3.8,304.5,0.5 c25.2,4.7,43.6,22.6,48.9,47.9c2.4,11.8,0.8,23.2-3.4,34.3c-12.5,33.1-24.8,66.3-37.2,99.4c-2.7,7.1-2.6,7.1,5.2,7.1 c40.9,0,81.9-0.2,122.8,0.1c21.5,0.1,37.7,9.5,46.8,29.6c4.4,9.8,4.4,20,2.7,30.5c-8.1,52.1-15.9,104.3-24.2,156.4 c-2.6,16.4-3.3,33.3-9.6,48.9c-10.7,26.5-36.5,44.1-65,44.2c-66.5,0.1-133,0.1-199.5,0c-29,0-49.6-20.7-49.7-49.9 C142.3,409.6,142.3,369.9,142.3,330.2z"/><path d="M0,338.5c0-37.3-0.1-74.5,0-111.8c0.1-23.5,14.9-43.1,37.5-47.5c15.4-3,31.5-3.1,46.9,0.4c21.7,5,35.5,24,35.6,49.1 c0.3,73.2,0.3,146.5,0,219.7c-0.1,26.4-15.1,45.5-38.9,49.7c-13.8,2.5-28.2,2.4-42.1,0.1c-23.3-3.9-39-23.9-39.1-47.9 C-0.1,413,0,375.8,0,338.5z"/></g></svg>